<svg width="1861" height="589" viewBox="0 0 1861 589" fill="none" xmlns="http://www.w3.org/2000/svg">
<g clip-path="url(#clip0_1_405)">
<path d="M421.1 18.783L431.361 0.916016H375.947L364.544 18.783M421.1 18.783H364.544M421.1 18.783L410.405 37.4029M421.1 18.783H477.655M421.1 18.783L431.36 0.916016H486.773M421.1 18.783H477.654M364.544 18.783L352.657 37.4029M410.405 37.4029H352.657M410.405 37.4029H468.147M410.405 37.4029L399.252 56.8179M477.655 18.783H534.21M477.655 18.783L468.147 37.4029M352.657 37.4029L340.266 56.8179H399.252M486.773 0.916016L477.654 18.783M486.773 0.916016H542.195M477.654 18.783H534.21M542.195 0.916016L534.21 18.783M542.195 0.916016H597.609M534.21 18.783H590.766M534.21 18.783L525.888 37.402M597.609 0.916016L590.766 18.783M597.609 0.916016H653.022H708.436H763.856M590.766 18.783H647.321M590.766 18.783L583.636 37.402M525.888 37.402L468.147 37.4029M525.888 37.402H583.636M525.888 37.402L517.214 56.8179M647.321 18.783L653.022 0.916932M647.321 18.783H703.876M647.321 18.783L641.378 37.402M583.636 37.402H641.378M583.636 37.402L576.2 56.8179M703.876 18.783L708.436 0.916932M703.876 18.783H760.431M703.876 18.783L699.126 37.401M641.378 37.402L699.126 37.401M641.378 37.402L635.186 56.8179M763.856 0.916016L760.431 18.783M763.856 0.916016H819.27M760.431 18.783H816.986M760.431 18.783L756.867 37.402M699.126 37.401L756.867 37.402M699.126 37.401L694.163 56.8179M819.27 0.916016L816.986 18.783M819.27 0.916016H874.683L873.541 18.783M816.986 18.783H873.541M816.986 18.783L814.616 37.402M816.986 18.783L873.542 18.782M756.867 37.402H814.616M756.867 37.402L753.149 56.8179M873.541 18.783L930.096 18.782M873.541 18.783L872.356 37.402M814.616 37.402H872.356M814.616 37.402L812.134 56.8179M873.542 18.782H930.096M873.542 18.782L874.685 0.916016H930.096M873.542 18.782L872.356 37.402M930.096 18.782V0.916016M930.096 18.782L986.656 18.783M930.096 18.782V37.402M872.356 37.402H930.096M872.356 37.402L871.119 56.8179M930.096 0.916016H985.52M985.52 0.916016L986.656 18.783M985.52 0.916016H1040.94M986.656 18.783H1043.22M986.656 18.783L987.847 37.402M1040.94 0.916016L1043.22 18.783M1040.94 0.916016H1096.35L1099.77 18.782M1043.22 18.783L1045.59 37.4029M1043.22 18.783L1099.77 18.782M987.847 37.402L1045.59 37.4029M987.847 37.402H930.096M987.847 37.402L989.084 56.8179M1045.59 37.4029L1103.33 37.402M1045.59 37.4029L1048.07 56.8179M930.096 37.402V56.8179M1099.77 18.782L1103.33 37.402M1099.77 18.782L1096.34 0.916016H1151.76M1099.77 18.782L1156.33 18.783M1103.33 37.402H1161.07M1103.33 37.402L1107.05 56.8179M1151.76 0.916016L1156.33 18.783M1151.76 0.916016H1207.18H1262.6M1156.33 18.783H1212.88M1156.33 18.783L1161.07 37.402M1212.88 18.783L1207.18 0.916932M1212.88 18.783H1269.44M1212.88 18.783L1218.83 37.4029M1161.07 37.402L1218.83 37.4029M1161.07 37.402L1166.03 56.8179M1262.6 0.916016L1269.44 18.783M1262.6 0.916016H1318.01M1269.44 18.783H1325.99M1269.44 18.783L1276.57 37.4029M1218.83 37.4029H1276.57M1218.83 37.4029L1225.02 56.8179M1325.99 18.783L1334.31 37.4029M1325.99 18.783L1318.01 0.916016M1325.99 18.783H1382.55M1325.99 18.783H1382.54L1392.05 37.402M1325.99 18.783L1334.3 37.402M1334.31 37.4029H1276.57M1334.31 37.4029L1392.05 37.402M1334.31 37.4029L1342.99 56.8179M1276.57 37.4029L1334.3 37.402M1276.57 37.4029L1284 56.8179M1318.01 0.916016H1373.43H1428.84M1382.55 18.783L1373.43 0.916932M1382.55 18.783H1439.1M1382.55 18.783L1392.05 37.402M1392.05 37.402H1334.3M1392.05 37.402H1449.8M1392.05 37.402L1401.98 56.8179M1334.3 37.402L1342.99 56.8179M1428.84 0.916016L1439.1 18.783M1428.84 0.916016H1484.26L1495.65 18.783H1439.1M1439.1 18.783L1449.8 37.402M1439.1 18.783H1495.66L1507.55 37.402M1449.8 37.402H1507.55M1449.8 37.402L1460.95 56.8179M1507.55 37.402L1519.94 56.8179M468.147 37.4029L458.229 56.8179M399.252 56.8179H458.229M399.252 56.8179L387.607 77.0894M517.214 56.8179H458.229M517.214 56.8179H576.2M517.214 56.8179L508.16 77.0894M576.2 56.8179H635.186M576.2 56.8179L568.434 77.0894M635.186 56.8179H694.163M635.186 56.8179L628.715 77.0894M694.163 56.8179H753.149M694.163 56.8179L688.988 77.0894M753.149 56.8179H812.134M753.149 56.8179L749.27 77.0894M753.149 56.8179L749.269 77.0894M812.134 56.8179H871.119M812.134 56.8179L809.543 77.0894M871.119 56.8179H930.096M871.119 56.8179L869.823 77.0894H809.543M930.096 56.8179H871.121L869.825 77.0894H930.096M930.096 56.8179V77.0894M930.096 56.8179H989.084M989.084 56.8179L990.376 77.0894M989.084 56.8179H1048.07M1107.05 56.8179H1048.07M1107.05 56.8179H1166.03M1107.05 56.8179L1110.94 77.0894H1050.66M1107.05 56.8179L1110.93 77.0894M1048.07 56.8179L1050.66 77.0894M1166.03 56.8179H1225.02M1166.03 56.8179L1171.22 77.0894M1284 56.8179H1342.99M1284 56.8179H1225.02M1284 56.8179L1291.77 77.0894M1225.02 56.8179L1231.49 77.0894M1342.99 56.8179H1401.98M1342.99 56.8179L1352.04 77.0894M1460.95 56.8179H1519.94M1460.95 56.8179H1401.98M1460.95 56.8179L1472.59 77.0894M1519.94 56.8179L1532.88 77.0903L1472.59 77.0894M1519.94 56.8179L1460.96 56.8188L1472.59 77.0894M1401.98 56.8179L1412.32 77.0894M458.229 56.8179L447.88 77.0894M387.607 77.0894H447.88M387.607 77.0894L327.325 77.0903M387.607 77.0894L375.442 98.2659M447.88 77.0894H508.16M447.88 77.0894L437.07 98.2659M508.16 77.0894H568.434M508.16 77.0894L498.697 98.2659M568.434 77.0894H628.715M568.434 77.0894L560.325 98.2659M628.715 77.0894H688.988M628.715 77.0894L621.952 98.2659M688.988 77.0894H749.27M688.988 77.0894L683.587 98.2659M749.27 77.0894L745.214 98.2659M749.269 77.0894H809.543M749.269 77.0894L745.214 98.2659M809.543 77.0894L806.842 98.2659M809.543 77.0894L869.824 77.0903M930.096 77.0894H990.376M930.096 77.0894L869.824 77.0903M930.096 77.0894V98.2659M990.376 77.0894H1050.66M990.376 77.0894L991.732 98.2659M990.376 77.0894L1050.65 77.0903L1053.36 98.2659M1050.66 77.0894H1110.93M1050.66 77.0894L1053.36 98.2659M1110.93 77.0894H1171.22M1110.93 77.0894L1114.99 98.2659M1171.22 77.0894H1231.49M1171.22 77.0894L1176.61 98.2659M1231.49 77.0894H1291.77M1231.49 77.0894L1238.24 98.2659M1291.77 77.0894H1352.04M1291.77 77.0894L1299.88 98.2659M1412.32 77.0894H1472.59M1412.32 77.0894H1352.04M1412.32 77.0894L1423.13 98.2659M1352.04 77.0894L1361.51 98.2659M1472.59 77.0894L1532.87 77.0903L1546.39 98.2659M1472.59 77.0894L1484.76 98.2659M437.07 98.2659H375.442M437.07 98.2659H498.697M437.07 98.2659L425.761 120.418M327.325 77.0903L313.807 98.2659M327.325 77.0903H387.606L399.251 56.8188H340.265L327.325 77.0903ZM313.807 98.2659H375.442M313.807 98.2659L299.674 120.418M375.442 98.2659L362.714 120.418M498.697 98.2659H560.325M498.697 98.2659L488.801 120.418M560.325 98.2659H621.952M560.325 98.2659L551.841 120.418M621.952 98.2659H683.587M621.952 98.2659L614.89 120.418M683.587 98.2659H745.214M683.587 98.2659L677.93 120.418M745.214 98.2659H806.842M745.214 98.2659L740.97 120.418M806.842 98.2659H868.47M806.842 98.2659L804.017 120.418M869.824 77.0903L868.47 98.2659M991.732 98.2659H930.096M991.732 98.2659H1053.36M991.732 98.2659L993.143 120.418M1053.36 98.2659H1114.99M1053.36 98.2659L1056.18 120.418M930.096 98.2659H868.47M930.096 98.2659V120.418M1176.61 98.2659H1114.99M1176.61 98.2659H1238.24M1176.61 98.2659L1182.28 120.418M1114.99 98.2659L1119.23 120.418M1238.24 98.2659H1299.88M1238.24 98.2659L1245.32 120.418M1299.88 98.2659H1361.51M1299.88 98.2659L1308.36 120.418M1361.51 98.2659H1423.13M1361.51 98.2659L1371.4 120.418M1423.13 98.2659H1484.76M1423.13 98.2659L1434.44 120.418M1546.39 98.2659H1484.76M1546.39 98.2659L1560.53 120.418M1484.76 98.2659L1497.49 120.418M362.714 120.418H299.674M362.714 120.418H425.761M362.714 120.418L349.393 143.607M299.674 120.418L284.873 143.607M425.761 120.418H488.801M425.761 120.418L413.919 143.607M488.801 120.418H551.841M488.801 120.418L478.438 143.607M551.841 120.418H614.89M551.841 120.418L542.963 143.607M614.89 120.418H677.93M614.89 120.418L607.49 143.607M677.93 120.418L672.008 143.607M677.93 120.418H740.97M740.97 120.418H804.017M740.97 120.418L736.535 143.607M868.47 98.2659L867.057 120.418M804.017 120.418H867.057M804.017 120.418L801.054 143.607M867.057 120.418H930.096M867.057 120.418L865.578 143.607M930.096 120.418H993.143M930.096 120.418V143.607M993.143 120.418L994.627 143.607M993.143 120.418H1056.18M1119.23 120.418H1056.18M1119.23 120.418H1182.28M1119.23 120.418L1123.66 143.607M1182.28 120.418H1245.32M1182.28 120.418L1188.2 143.607M1245.32 120.418L1252.71 143.607M1245.32 120.418H1308.36M1371.4 120.418H1308.36M1371.4 120.418H1434.44M1371.4 120.418L1381.76 143.607M1434.44 120.418L1446.29 143.607M1434.44 120.418H1497.49M1560.53 120.418H1497.49M1560.53 120.418L1575.33 143.607H1510.81M1497.49 120.418L1510.81 143.607M349.393 143.607H284.873M349.393 143.607H413.919M349.393 143.607L335.435 167.912M349.393 143.607L335.434 167.912H401.505M284.873 143.607L269.358 167.912M413.919 143.607H478.438M413.919 143.607L401.505 167.912M478.438 143.607H542.963M478.438 143.607L467.583 167.912M478.438 143.607H542.964M542.963 143.607H607.49M607.49 143.607H672.008M607.49 143.607H542.964M607.49 143.607L599.731 167.912M672.008 143.607H736.535M672.008 143.607L665.801 167.912M736.535 143.607H801.054M736.535 143.607L731.879 167.912H665.801M736.535 143.607L731.88 167.912M801.054 143.607H865.578M801.054 143.607L797.95 167.912M865.578 143.607H930.096M865.578 143.607H801.052L797.948 167.912H864.026L865.578 143.607ZM994.627 143.607H930.096M994.627 143.607H1059.15M994.627 143.607L996.176 167.912M930.096 143.607V167.912M930.096 143.607H865.58L864.028 167.912M1056.18 120.418L1059.15 143.607M1059.15 143.607H1123.66M1059.15 143.607L1062.26 167.912M1123.66 143.607H1188.2M1123.66 143.607L1128.33 167.912M1188.2 143.607H1252.71M1188.2 143.607L1194.4 167.912M1188.2 143.607L1252.71 143.608L1260.47 167.912M1252.71 143.607H1317.24M1252.71 143.607L1260.47 167.912M1308.36 120.418L1317.24 143.607M1317.24 143.607H1381.76M1317.24 143.607L1326.55 167.912M1381.76 143.607H1446.29M1381.76 143.607L1392.62 167.912M1446.29 143.607L1458.7 167.912M1446.29 143.607H1510.81M1446.29 143.607L1458.69 167.912H1524.76M1510.81 143.607L1524.76 167.912M335.435 167.912H269.358M335.435 167.912L320.782 193.416M335.435 167.912H401.505M335.435 167.912L320.781 193.416H388.485M401.505 167.912H467.583M401.505 167.912L388.485 193.416M269.358 167.912L253.08 193.416M467.583 167.912L456.187 193.416M467.583 167.912H533.654M542.964 143.607L533.654 167.912M599.731 167.912H533.654M599.731 167.912H665.801M599.731 167.912L591.592 193.416M665.801 167.912L659.295 193.416M665.801 167.912H731.88M731.88 167.912H797.95M731.88 167.912L726.997 193.416M797.95 167.912L794.7 193.416M797.95 167.912H864.028M930.096 167.912H864.028M930.096 167.912V193.416M930.096 167.912H996.176M996.176 167.912H1062.26M996.176 167.912L997.798 193.416M1062.26 167.912H1128.33M1062.26 167.912L1065.5 193.416M1128.33 167.912H1194.4M1128.33 167.912L1133.2 193.416M1194.4 167.912H1260.47M1194.4 167.912L1200.9 193.416M1260.47 167.912H1326.55M1260.47 167.912L1268.61 193.416M1326.55 167.912H1392.62M1326.55 167.912L1336.32 193.416M1392.62 167.912H1458.7M1392.62 167.912L1404.02 193.416M1458.7 167.912L1471.72 193.416M1458.7 167.912H1524.76M1524.76 167.912H1590.84M1524.76 167.912L1510.81 143.608H1575.33L1590.84 167.912M1524.76 167.912L1539.42 193.416M320.782 193.416H253.08M320.782 193.416L305.389 220.203M320.782 193.416H388.485M388.485 193.416H456.187M388.485 193.416L374.805 220.203M253.08 193.416L235.982 220.203M456.187 193.416H523.89M456.187 193.416L444.22 220.203M533.654 167.912L523.89 193.416M523.89 193.416H591.592M523.89 193.416L513.628 220.203M591.592 193.416H659.295M591.592 193.416L583.043 220.203M659.295 193.416H726.997M659.295 193.416L652.452 220.203M794.7 193.416H726.997M794.7 193.416H862.403M794.7 193.416L791.274 220.203M864.028 167.912L862.403 193.416M726.997 193.416L721.866 220.203M726.997 193.416L794.699 193.415L791.274 220.203M930.096 193.416H862.403M930.096 193.416V220.203M930.096 193.416H997.798M862.403 193.416L860.69 220.203M997.798 193.416H1065.5M997.798 193.416L999.511 220.203M1065.5 193.416H1133.2M1065.5 193.416L1068.93 220.203M1200.9 193.416H1133.2M1200.9 193.416H1268.61M1200.9 193.416L1207.75 220.203M1133.2 193.416L1138.33 220.203M1268.61 193.416H1336.32M1268.61 193.416L1277.16 220.203M1404.02 193.416H1336.32M1404.02 193.416H1471.72M1404.02 193.416L1415.99 220.203M1471.72 193.416H1539.42M1471.72 193.416L1485.4 220.203M1590.84 167.912L1607.13 193.416M1539.42 193.416H1607.13M1539.42 193.416L1554.81 220.203M1607.13 193.416L1624.22 220.203M305.389 220.203H235.982M305.389 220.203H374.805M305.389 220.203L289.207 248.384M235.982 220.203L217.991 248.384M374.805 220.203H444.22M374.805 220.203L360.416 248.384M374.805 220.203L360.415 248.383H431.624M444.22 220.203H513.628M444.22 220.203L431.624 248.383M444.22 220.203L431.623 248.384H502.839M513.628 220.203L502.839 248.384M513.628 220.203H583.043M513.628 220.203L502.84 248.383M583.043 220.203H652.452M583.043 220.203L574.048 248.383M583.043 220.203L574.048 248.384H645.256L652.452 220.203M652.452 220.203H721.866M652.452 220.203L645.257 248.383M721.866 220.203H791.274M721.866 220.203L716.473 248.383M791.274 220.203H860.69M791.274 220.203L787.681 248.383M860.69 220.203H930.096M860.69 220.203L858.89 248.383M860.69 220.203L858.89 248.384H930.096M930.096 220.203V248.384M930.096 220.203H999.511M999.511 220.203H1068.93M999.511 220.203L1001.32 248.384M1068.93 220.203H1138.33M1068.93 220.203L1072.52 248.384M1138.33 220.203H1207.75M1138.33 220.203L1143.73 248.384H1072.52M1138.33 220.203L1143.73 248.383M1207.75 220.203H1277.16M1207.75 220.203L1214.95 248.383H1143.73M1207.75 220.203L1277.16 220.204L1286.15 248.384M1207.75 220.203L1214.95 248.384M1336.32 193.416L1346.57 220.203M1277.16 220.203H1346.57M1277.16 220.203L1286.15 248.384M1346.57 220.203H1415.99M1346.57 220.203L1357.36 248.384M1415.99 220.203H1485.4M1415.99 220.203L1428.58 248.383M1415.99 220.203L1428.58 248.384H1357.36M1485.4 220.203H1554.81M1485.4 220.203L1499.79 248.383M1554.81 220.203H1624.22M1554.81 220.203L1571 248.383M1554.81 220.203L1571 248.384M1624.22 220.203L1642.2 248.384M289.207 248.384H217.991M289.207 248.384H360.416M289.207 248.384L272.16 278.058M217.991 248.384L199.05 278.058M360.416 248.384L345.265 278.058M360.416 248.384L431.624 248.383M431.624 248.383L418.369 278.058M431.624 248.383L502.839 248.384M502.839 248.384L491.473 278.058M502.84 248.383H574.048M502.84 248.383L491.473 278.058M574.048 248.383L564.578 278.058M574.048 248.383H645.257M645.257 248.383H716.473M645.257 248.383L637.682 278.058M716.473 248.383L710.785 278.058M787.681 248.383H858.89M787.681 248.383L716.473 248.384M787.681 248.383L783.889 278.058M858.89 248.383L787.682 248.384M858.89 248.383L930.096 248.384M858.89 248.383L856.993 278.058M930.096 248.384H1001.32M930.096 248.384V278.058M1001.32 248.384H1072.52M1001.32 248.384L1003.21 278.058M1072.52 248.384L1076.31 278.058M1072.52 248.384L1143.73 248.383M1143.73 248.383L1149.42 278.058M1143.73 248.383L1214.95 248.384M1286.15 248.384H1214.95M1286.15 248.384L1295.63 278.058M1286.15 248.384H1357.36M1428.58 248.383L1357.36 248.384M1428.58 248.383H1499.79M1428.58 248.383L1441.83 278.058M1499.79 248.383H1571M1499.79 248.383L1514.94 278.058M1571 248.383L1588.04 278.058M1571 248.384H1642.2M1571 248.384L1588.04 278.058M1642.2 248.384L1661.15 278.058M272.16 278.058H199.05M272.16 278.058H345.265M272.16 278.058L254.177 309.361M199.05 278.058L179.075 309.361M345.265 278.058H418.369M345.265 278.058L329.279 309.361M418.369 278.058H491.473M418.369 278.058L404.382 309.361M491.473 278.058H564.578M491.473 278.058L479.484 309.361M564.578 278.058H637.682M564.578 278.058L554.586 309.361M710.785 278.058L716.473 248.384M710.785 278.058H637.682M710.785 278.058H783.889M710.785 278.058L704.791 309.361M637.682 278.058L629.689 309.361M787.682 248.384L791.275 220.204H721.867L716.473 248.384M787.682 248.384H716.473M787.682 248.384L783.889 278.058M783.889 278.058H856.993M783.889 278.058L779.893 309.361M1003.21 278.058H930.096M1003.21 278.058H1076.31M1003.21 278.058L1005.21 309.361M930.096 278.058H856.993M930.096 278.058V309.361M1076.31 278.058H1149.42M1076.31 278.058L1080.31 309.361M1149.42 278.058H1222.52M1149.42 278.058L1155.41 309.361M1214.95 248.384L1222.52 278.058M1295.63 278.058H1368.73M1295.63 278.058H1222.52M1295.63 278.058L1305.61 309.361M1222.52 278.058L1230.52 309.361M1357.36 248.384L1368.73 278.058M1368.73 278.058H1441.83M1368.73 278.058L1380.72 309.361M1514.94 278.058H1441.83M1514.94 278.058H1588.04M1514.94 278.058L1530.92 309.361M1441.83 278.058L1455.82 309.361M1588.04 278.058L1606.03 309.361M1588.04 278.058H1661.15M1661.15 278.058L1681.13 309.361H1606.03M254.177 309.361H179.075M254.177 309.361H329.279M254.177 309.361L235.184 342.423M179.075 309.361L157.974 342.423M329.279 309.361H404.382M329.279 309.361L312.401 342.423M329.279 309.361L312.401 342.424H389.612M404.382 309.361H479.484M404.382 309.361L389.612 342.424M479.484 309.361H554.586M479.484 309.361L466.822 342.424M554.586 309.361H629.689M554.586 309.361L544.039 342.424M629.689 309.361H704.791M629.689 309.361L621.25 342.424M629.689 309.361L621.249 342.423H698.46M704.791 309.361H779.893M704.791 309.361L698.46 342.423M856.993 278.058L854.995 309.361M779.893 309.361H854.995M779.893 309.361L775.677 342.423M854.995 309.361H930.096M854.995 309.361L852.887 342.423M930.096 309.361H1005.21M930.096 309.361V342.424M1005.21 309.361L1007.32 342.424M1005.21 309.361H1080.31M1155.41 309.361H1080.31M1155.41 309.361H1230.52M1155.41 309.361L1161.73 342.424H1084.53M1155.41 309.361L1161.73 342.423M1230.52 309.361H1305.61M1230.52 309.361L1238.96 342.423M1305.61 309.361H1380.72M1305.61 309.361L1316.16 342.423M1455.82 309.361H1380.72M1455.82 309.361H1530.92M1455.82 309.361L1470.6 342.423M1380.72 309.361L1393.38 342.423M1530.92 309.361H1606.03M1530.92 309.361L1547.8 342.423M1530.92 309.361L1547.8 342.424H1625.02M1606.03 309.361L1625.02 342.424M1606.03 309.361L1681.12 309.361L1702.22 342.424H1625.02M235.184 342.423H157.974M235.184 342.423H312.401M235.184 342.423L215.101 377.391M157.974 342.423L135.65 377.391M312.401 342.423L294.543 377.391M312.401 342.423H389.611M389.612 342.424H466.822M466.822 342.424H544.039M544.039 342.424H621.25M621.25 342.424L544.04 342.423M621.25 342.424L612.32 377.391M621.25 342.424L698.46 342.423M698.46 342.423H775.677M698.46 342.423L691.771 377.391M775.677 342.423H852.887M775.677 342.423L771.212 377.391M852.887 342.423L850.656 377.391M852.887 342.423H930.096M852.887 342.423L850.654 377.391M930.096 342.424H1007.32M930.096 342.424V309.361H854.996L852.889 342.424H930.096ZM1007.32 342.424H1084.53M1080.31 309.361L1084.53 342.424M1161.73 342.423H1238.96M1161.73 342.423L1168.43 377.391M1161.73 342.423H1084.52L1088.99 377.391M1238.96 342.423H1316.16M1238.96 342.423L1247.88 377.391M1316.16 342.423H1393.38M1316.16 342.423L1327.32 377.391M1393.38 342.423H1470.6M1393.38 342.423L1406.77 377.391M1470.6 342.423H1547.8M1470.6 342.423L1486.22 377.391M1547.8 342.423H1470.59L1486.22 377.391M1547.8 342.423L1565.66 377.391M1547.8 342.423L1625.02 342.424M1625.02 342.424L1645.11 377.391M215.101 377.391H135.65M215.101 377.391H294.543M215.101 377.391L193.817 414.444M135.65 377.391L112.002 414.444M294.543 377.391H373.985M294.543 377.391L275.623 414.444M389.611 342.423L373.985 377.391M389.611 342.423H466.821L453.434 377.391M544.04 342.423H466.823L453.436 377.391H532.878M544.04 342.423L532.878 377.391M612.32 377.391H532.878M612.32 377.391H691.771M612.32 377.391H532.877M612.32 377.391L602.864 414.444M691.771 377.391H771.212M691.771 377.391L684.67 414.444M771.212 377.391H850.656M771.212 377.391L766.484 414.444M850.656 377.391L771.213 377.391L766.484 414.444M850.656 377.391L848.292 414.444M930.096 342.423V377.391M930.096 342.423H1007.32M850.654 377.391H930.096M850.654 377.391L848.29 414.444H930.096M1247.88 377.391H1168.43M1247.88 377.391H1327.32M1247.88 377.391L1168.43 377.391M1247.88 377.391L1257.34 414.444M1247.88 377.391H1327.33M1168.43 377.391H1088.99M1327.32 377.391H1406.77M1406.77 377.391H1486.22M1406.77 377.391H1327.33M1406.77 377.391L1420.96 414.444M1486.22 377.391L1565.66 377.391M1486.22 377.391L1502.76 414.444M1486.22 377.391H1565.66M1565.66 377.391H1645.11M1645.11 377.391H1724.55M1645.11 377.391L1625.02 342.423H1702.22L1724.55 377.391M1645.11 377.391L1565.66 377.391M1645.11 377.391L1666.39 414.444M193.817 414.444H112.002M193.817 414.444H275.623M193.817 414.444L171.222 453.77M112.002 414.444L86.9053 453.77M373.985 377.391H453.434M373.985 377.391L357.429 414.444M275.623 414.444H357.429M275.623 414.444L255.539 453.77M453.434 377.391L439.243 414.444M453.434 377.391H532.877M357.429 414.444H439.243M357.429 414.444H275.622L255.539 453.77M357.429 414.444L339.863 453.77H255.539M357.429 414.444L339.863 453.77M439.243 414.444H521.049M439.243 414.444L424.181 453.77M532.877 377.391L521.049 414.444M602.864 414.444H521.049M602.864 414.444H684.67M602.864 414.444L592.822 453.77M684.67 414.444H766.484M684.67 414.444L677.139 453.77M766.484 414.444H848.292M766.484 414.444L761.464 453.77M848.292 414.444L845.781 453.77M848.292 414.444H930.096M930.096 377.391H1009.54M930.096 377.391V414.444M1007.32 342.423L1009.54 377.391M1007.32 342.423H1084.53L1088.99 377.391M1009.54 377.391L1011.91 414.444M1009.54 377.391H1088.99M930.096 414.444V453.77M930.096 414.444H1011.91M1011.91 414.444H1093.72M1011.91 414.444L1014.42 453.77M1088.99 377.391L1093.72 414.444M1088.99 377.391L1168.43 377.391M1093.72 414.444H1175.53M1093.72 414.444L1098.74 453.77M1168.43 377.391L1175.53 414.444M1257.34 414.444H1175.53M1257.34 414.444L1267.38 453.77M1257.34 414.444H1339.15M1327.33 377.391L1339.15 414.444M1420.96 414.444H1339.15M1420.96 414.444H1502.76M1420.96 414.444L1436.02 453.77M1420.96 414.444H1339.16L1351.7 453.77M1565.66 377.391L1584.58 414.444M1502.76 414.444H1584.58M1502.76 414.444L1520.34 453.77M1584.58 414.444H1666.39M1584.58 414.444L1604.65 453.77M1724.55 377.391L1748.2 414.444M1666.39 414.444H1748.2M1666.39 414.444L1688.98 453.77M1748.2 414.444L1773.3 453.77M171.222 453.77H86.9053M171.222 453.77H255.539M171.222 453.77L147.2 495.584M86.9053 453.77L60.2111 495.584M255.539 453.77L234.189 495.584M255.539 453.77H339.863M339.863 453.77H424.181M339.863 453.77L321.177 495.584M521.049 414.444L508.505 453.77M424.181 453.77H508.505M424.181 453.77L408.166 495.584M508.505 453.77H592.822M508.505 453.77L495.155 495.584M592.822 453.77H677.139M677.139 453.77H761.464M677.139 453.77L592.823 453.769M677.139 453.77L669.132 495.584M677.139 453.77L761.462 453.769L756.12 495.584M761.464 453.77H845.781M761.464 453.77L756.121 495.584M845.781 453.77H930.096M845.781 453.77L843.11 495.584M845.781 453.77L843.109 495.584M930.096 453.77H1014.42M930.096 453.77V495.584M1014.42 453.77H1098.74M1014.42 453.77L1017.08 495.584M1175.53 414.444L1183.06 453.77M1267.38 453.77H1183.06M1267.38 453.77H1351.7M1267.38 453.77L1278.06 495.584M1183.06 453.77H1098.74M1183.06 453.77L1191.07 495.584M1339.15 414.444L1351.7 453.77M1351.7 453.77L1365.05 495.584M1351.7 453.77H1436.02M1436.02 453.77H1520.34M1436.02 453.77L1452.04 495.584M1436.02 453.77L1520.34 453.769M1520.34 453.77H1604.65M1688.98 453.77H1604.65M1688.98 453.77H1773.3M1688.98 453.77L1713 495.584M1773.3 453.77L1799.99 495.584M147.2 495.584H60.2111M147.2 495.584H234.189M147.2 495.584L121.611 540.137H31.776M60.2111 495.584L31.776 540.137M234.189 495.584H321.177M234.189 495.584L147.2 495.585L121.613 540.137M234.189 495.584L211.441 540.137M234.189 495.584L211.44 540.137H301.276M408.166 495.584H321.177M408.166 495.584H495.155M408.166 495.584L391.105 540.137M321.177 495.584L301.276 540.137M495.155 495.584H582.144M495.155 495.584L508.506 453.769H592.823M495.155 495.584L480.94 540.137M592.823 453.769L582.144 495.584M669.132 495.584H582.144M669.132 495.584H756.12M669.132 495.584L582.143 495.585L570.768 540.137H660.604L669.132 495.584ZM669.132 495.584H756.121M669.132 495.584L660.605 540.137M756.12 495.584H843.109M756.12 495.584L750.433 540.137M756.121 495.584H843.11M756.121 495.584L750.434 540.137M843.11 495.584H930.096M843.11 495.584L840.27 540.137H930.096M843.109 495.584H930.096M843.109 495.584L840.269 540.137M1098.74 453.77L1104.08 495.584M1017.08 495.584H930.096M1017.08 495.584H1104.08M1017.08 495.584L1019.93 540.137M930.096 495.584V540.137M1104.08 495.584H1191.07M1104.08 495.584L1109.76 540.137M1191.07 495.584H1278.06M1191.07 495.584L1199.59 540.137M1191.07 495.584L1199.6 540.137H1289.43M1365.05 495.584H1278.06M1365.05 495.584H1452.04M1365.05 495.584L1379.26 540.137M1365.05 495.584L1452.03 495.585L1469.1 540.137M1278.06 495.584L1289.43 540.137M1452.04 495.584H1539.03M1452.04 495.584L1469.1 540.137M1520.34 453.769L1539.03 495.584M1520.34 453.769H1604.66L1626.01 495.584M1604.65 453.77L1626.01 495.584M1626.01 495.584H1713M1626.01 495.584H1539.03M1626.01 495.584L1648.76 540.137M1713 495.584H1799.99M1713 495.584L1738.59 540.137M1799.99 495.584L1828.43 540.137M31.776 540.137H121.613M31.776 540.137L1.42407 587.697H94.2903M121.613 540.137H211.441M121.613 540.137L94.2903 587.697M211.441 540.137L187.156 587.696M211.441 540.137H301.276M301.276 540.137H391.105M301.276 540.137L280.028 587.696M391.105 540.137H480.94M391.105 540.137L372.894 587.697M582.144 495.584L570.769 540.137M480.94 540.137H570.769M480.94 540.137H391.106L372.894 587.697M480.94 540.137L465.762 587.697M570.769 540.137L558.627 587.696M570.769 540.137H660.605M660.605 540.137H750.434M660.605 540.137L651.5 587.696M750.433 540.137H840.269M750.433 540.137L744.366 587.697M930.096 540.137H840.269M930.096 540.137H1019.93M930.096 540.137V587.696M750.434 540.137L744.366 587.697M840.269 540.137L837.231 587.696M1019.93 540.137L1022.97 587.697M1019.93 540.137H1109.76M1109.76 540.137H1199.59M1109.76 540.137L1115.84 587.697M1199.59 540.137L1208.7 587.697M1199.59 540.137H1289.43M1379.26 540.137H1469.1M1379.26 540.137H1289.43M1379.26 540.137L1394.44 587.696M1469.1 540.137L1487.31 587.696M1469.1 540.137H1558.93M1539.03 495.584L1558.93 540.137M1558.93 540.137H1648.76M1558.93 540.137L1580.17 587.696M1738.59 540.137H1648.76M1738.59 540.137H1828.43M1738.59 540.137L1765.91 587.696M187.156 587.696L94.2903 587.697M187.156 587.696H280.028M280.028 587.696L372.894 587.697M372.894 587.697H465.762M465.762 587.697L558.627 587.696M558.627 587.696H651.5M744.366 587.697L651.5 587.696M744.366 587.697L837.231 587.696M837.231 587.696H930.096M1022.97 587.697L930.096 587.696M1022.97 587.697H1115.84M1208.7 587.697H1115.84M1208.7 587.697H1301.57M1289.43 540.137L1301.57 587.697M1394.44 587.696L1301.57 587.697M1394.44 587.696H1487.31M1487.31 587.696H1580.17M1648.76 540.137L1558.92 540.136L1580.17 587.696M1648.76 540.137L1673.05 587.696M1580.17 587.696H1673.05M1673.05 587.696H1765.91M1828.43 540.137L1858.78 587.697L1765.91 587.696" stroke="black" stroke-miterlimit="10"/>
</g>
<defs>
<clipPath id="clip0_1_405">
<rect width="1860" height="589" fill="white" transform="translate(0.507812)"/>
</clipPath>
</defs>
</svg>
